<?xml version="1.0" encoding="UTF-8"?>
<svg width="520px" height="298px" viewBox="0 0 520 298" version="1.1" xmlns="http://www.w3.org/2000/svg"
>
    <title>编组 2</title>
    <g id="草稿" stroke="none" stroke-width="1" fill="none" fill-rule="evenodd">
        <g id="缺省页" transform="translate(-733.000000, -279.000000)">
            <g id="编组-2" transform="translate(733.000000, 279.000000)">
                <path d="M347.934959,238.861789 L172.065041,238.861789 L172.065041,122.182244 C172.065041,118.91174 174.716618,116.260163 177.986276,116.260163 L342.012878,116.260163 C345.283382,116.260163 347.934959,118.91174 347.934959,122.182244 L347.934959,238.861789 Z"
                      id="Fill-1" fill="#B0B0B0"></path>
                <path d="M172.910569,238.01626 L347.089431,238.01626 L347.089431,122.182244 C347.089431,119.382699 344.812423,117.105691 342.012878,117.105691 L177.986276,117.105691 C175.187577,117.105691 172.910569,119.382699 172.910569,122.182244 L172.910569,238.01626 Z M347.934959,239.707317 L172.065041,239.707317 C171.598309,239.707317 171.219512,239.329366 171.219512,238.861789 L171.219512,122.182244 C171.219512,118.450081 174.254959,115.414634 177.986276,115.414634 L342.012878,115.414634 C345.744195,115.414634 348.780488,118.450081 348.780488,122.182244 L348.780488,238.861789 C348.780488,239.329366 348.402537,239.707317 347.934959,239.707317 L347.934959,239.707317 Z"
                      id="Fill-3" fill="#000000"></path>
                <path d="M340.325203,238.01626 L178.829268,238.01626 L178.829268,128.946472 C178.829268,125.675967 181.480846,123.02439 184.750504,123.02439 L334.403122,123.02439 C337.673626,123.02439 340.325203,125.675967 340.325203,128.946472 L340.325203,238.01626 Z"
                      id="Fill-5" fill="#EBF1FA"></path>
                <path d="M179.674797,237.170732 L339.479675,237.170732 L339.479675,128.946472 C339.479675,126.146927 337.202667,123.869919 334.403122,123.869919 L184.750504,123.869919 C181.951805,123.869919 179.674797,126.146927 179.674797,128.946472 L179.674797,237.170732 Z M340.325203,238.861789 L178.829268,238.861789 C178.362537,238.861789 177.98374,238.483837 177.98374,238.01626 L177.98374,128.946472 C177.98374,125.214309 181.019187,122.178862 184.750504,122.178862 L334.403122,122.178862 C338.134439,122.178862 341.170732,125.214309 341.170732,128.946472 L341.170732,238.01626 C341.170732,238.483837 340.79278,238.861789 340.325203,238.861789 L340.325203,238.861789 Z"
                      id="Fill-7" fill="#000000"></path>
                <polygon id="Fill-9" fill="#B6D0FA"
                         points="180.097561 172.910569 339.056911 172.910569 339.056911 142.471545 180.097561 142.471545"></polygon>
                <rect id="矩形" fill="#000000" x="250.276423" y="129.260163" width="19.4471545" height="2.53658537"
                      rx="1.26829268"></rect>
                <path d="M441.577236,59.1622179 L431.934829,49.5198114 L441.577236,39.8765593 L441.577236,59.1622179 Z M420.998764,60.4550309 L430.739252,50.7153886 L440.478894,60.4550309 L420.998764,60.4550309 Z M419.910569,39.8867057 L429.543675,49.5198114 L419.910569,59.1520715 L419.910569,39.8867057 Z M417.902439,59.1622179 L408.260033,49.5198114 L417.902439,39.8765593 L417.902439,59.1622179 Z M397.323967,60.4550309 L407.064455,50.7153886 L416.804098,60.4550309 L397.323967,60.4550309 Z M396.235772,39.8867057 L405.868878,49.5198114 L396.235772,59.1520715 L396.235772,39.8867057 Z M373.508813,273.528202 L383.250146,263.788559 L392.989789,273.528202 L373.508813,273.528202 Z M400.587707,279.446901 L365.921041,279.446901 L365.921041,275.219259 L371.575935,275.219259 L394.933659,275.219259 L400.587707,275.219259 L400.587707,279.446901 Z M407.351935,285.3656 L359.156813,285.3656 L359.156813,281.137958 L365.075512,281.137958 L401.433236,281.137958 L407.351935,281.137958 L407.351935,285.3656 Z M370.552846,59.1622179 L360.910439,49.5198114 L370.552846,39.8765593 L370.552846,59.1622179 Z M349.974374,60.4550309 L359.714862,50.7153886 L369.454504,60.4550309 L349.974374,60.4550309 Z M348.886179,39.8867057 L358.519285,49.5198114 L348.886179,59.1520715 L348.886179,39.8867057 Z M346.878049,59.1622179 L337.235642,49.5198114 L346.878049,39.8765593 L346.878049,59.1622179 Z M326.299577,60.4550309 L336.040065,50.7153886 L345.779707,60.4550309 L326.299577,60.4550309 Z M325.211382,39.8867057 L334.844488,49.5198114 L325.211382,59.1520715 L325.211382,39.8867057 Z M323.203252,59.1622179 L313.560846,49.5198114 L323.203252,39.8765593 L323.203252,59.1622179 Z M302.62478,60.4550309 L312.365268,50.7153886 L322.104911,60.4550309 L302.62478,60.4550309 Z M301.536585,39.8867057 L311.169691,49.5198114 L301.536585,59.1520715 L301.536585,39.8867057 Z M299.845528,39.9839415 L299.845528,60.4550309 L279.374439,60.4550309 L299.845528,39.9839415 Z M321.900293,38.7883642 L312.365268,48.3242341 L302.829398,38.7883642 L321.900293,38.7883642 Z M345.575089,38.7883642 L336.040065,48.3242341 L326.504195,38.7883642 L345.575089,38.7883642 Z M369.249886,38.7883642 L359.714862,48.3242341 L350.178992,38.7883642 L369.249886,38.7883642 Z M372.421463,16.2119089 L382.054569,25.8450146 L372.421463,35.4772748 L372.421463,16.2119089 Z M392.785171,15.1135675 L383.250146,24.6494374 L373.714276,15.1135675 L392.785171,15.1135675 Z M394.08813,35.4874211 L384.445724,25.8450146 L394.08813,16.2017626 L394.08813,35.4874211 Z M394.08813,248.560592 L384.445724,238.918185 L394.08813,229.274933 L394.08813,248.560592 Z M382.054569,238.918185 L372.421463,248.550446 L372.421463,229.28508 L382.054569,238.918185 Z M392.989789,249.853405 L373.508813,249.853405 L383.250146,240.113763 L392.989789,249.853405 Z M373.714276,228.186738 L392.785171,228.186738 L383.250146,237.722608 L373.714276,228.186738 Z M394.08813,224.885795 L384.445724,215.243389 L394.08813,205.600137 L394.08813,224.885795 Z M382.054569,215.243389 L372.421463,224.875649 L372.421463,205.610283 L382.054569,215.243389 Z M392.989789,226.178608 L373.508813,226.178608 L383.250146,216.438966 L392.989789,226.178608 Z M373.714276,204.511941 L392.785171,204.511941 L383.250146,214.047811 L373.714276,204.511941 Z M394.08813,201.210998 L384.445724,191.568592 L394.08813,181.92534 L394.08813,201.210998 Z M382.054569,191.568592 L372.421463,201.200852 L372.421463,181.935486 L382.054569,191.568592 Z M392.989789,202.503811 L373.508813,202.503811 L383.250146,192.764169 L392.989789,202.503811 Z M373.714276,180.837145 L392.785171,180.837145 L383.250146,190.373015 L373.714276,180.837145 Z M394.08813,177.536202 L384.445724,167.893795 L394.08813,158.250543 L394.08813,177.536202 Z M382.054569,167.893795 L372.421463,177.526055 L372.421463,158.260689 L382.054569,167.893795 Z M392.989789,178.829015 L373.508813,178.829015 L383.250146,169.089372 L392.989789,178.829015 Z M373.714276,157.162348 L392.785171,157.162348 L383.250146,166.698218 L373.714276,157.162348 Z M394.08813,153.861405 L384.445724,144.218998 L394.08813,134.575746 L394.08813,153.861405 Z M382.054569,144.218998 L372.421463,153.851259 L372.421463,134.585893 L382.054569,144.218998 Z M392.989789,155.154218 L373.508813,155.154218 L383.250146,145.414576 L392.989789,155.154218 Z M373.714276,133.487551 L392.785171,133.487551 L383.250146,143.023421 L373.714276,133.487551 Z M394.08813,130.186608 L384.445724,120.544202 L394.08813,110.90095 L394.08813,130.186608 Z M382.054569,120.544202 L372.421463,130.176462 L372.421463,110.911096 L382.054569,120.544202 Z M392.989789,131.479421 L373.508813,131.479421 L383.250146,121.739779 L392.989789,131.479421 Z M373.714276,109.812754 L392.785171,109.812754 L383.250146,119.348624 L373.714276,109.812754 Z M394.08813,106.511811 L384.445724,96.8694049 L394.08813,87.2261528 L394.08813,106.511811 Z M382.054569,96.8694049 L372.421463,106.501665 L372.421463,87.2362992 L382.054569,96.8694049 Z M392.989789,107.804624 L373.508813,107.804624 L383.250146,98.0649821 L392.989789,107.804624 Z M373.714276,86.1379577 L392.785171,86.1379577 L383.250146,95.6738276 L373.714276,86.1379577 Z M382.054569,49.5198114 L372.421463,59.1520715 L372.421463,39.8867057 L382.054569,49.5198114 Z M383.250146,48.3242341 L373.714276,38.7883642 L392.785171,38.7883642 L383.250146,48.3242341 Z M392.989789,60.4550309 L373.508813,60.4550309 L383.250146,50.7153886 L392.989789,60.4550309 Z M384.445724,49.5198114 L394.08813,39.8765593 L394.08813,59.1622179 L384.445724,49.5198114 Z M394.08813,82.8370146 L384.445724,73.1946081 L394.08813,63.5513561 L394.08813,82.8370146 Z M382.054569,73.1946081 L372.421463,82.8268683 L372.421463,63.5615024 L382.054569,73.1946081 Z M392.989789,84.1298276 L373.508813,84.1298276 L383.250146,74.3901854 L392.989789,84.1298276 Z M373.714276,62.463161 L392.785171,62.463161 L383.250146,71.9990309 L373.714276,62.463161 Z M373.508813,36.7802341 L383.250146,27.0405919 L392.989789,36.7802341 L373.508813,36.7802341 Z M394.08813,252.94973 L394.08813,272.235389 L384.445724,262.592982 L394.08813,252.94973 Z M382.054569,262.592982 L372.421463,272.225242 L372.421463,252.959876 L382.054569,262.592982 Z M373.714276,251.861535 L392.785171,251.861535 L383.250146,261.397405 L373.714276,251.861535 Z M416.59948,38.7883642 L407.064455,48.3242341 L397.528585,38.7883642 L416.59948,38.7883642 Z M440.274276,38.7883642 L430.739252,48.3242341 L421.203382,38.7883642 L440.274276,38.7883642 Z M442.422764,37.0973073 L419.065041,37.0973073 C419.009236,37.0973073 418.95935,37.1192911 418.906927,37.1294374 C418.853659,37.1192911 418.803772,37.0973073 418.747967,37.0973073 L395.779187,37.0973073 L395.779187,14.268039 C395.779187,13.8013073 395.401236,13.4225106 394.933659,13.4225106 L371.575935,13.4225106 C371.108358,13.4225106 370.730407,13.8013073 370.730407,14.268039 L370.730407,37.0973073 L348.04065,37.0973073 C347.984846,37.0973073 347.934959,37.1192911 347.881691,37.1294374 C347.829268,37.1192911 347.779382,37.0973073 347.723577,37.0973073 L324.365854,37.0973073 C324.310049,37.0973073 324.260163,37.1192911 324.20774,37.1294374 C324.154472,37.1192911 324.104585,37.0973073 324.04878,37.0973073 L300.691057,37.0973073 C300.673301,37.0973073 300.658081,37.1066081 300.63948,37.1074537 C300.562537,37.1125268 300.487285,37.1277463 300.413724,37.1539577 C300.387512,37.162413 300.361301,37.1691772 300.33678,37.1810146 C300.249691,37.2216 300.166829,37.2723317 300.095805,37.3433561 C300.094959,37.3442016 300.093268,37.3450472 300.092423,37.3458927 L276.735545,60.7027707 C276.493724,60.9445919 276.421008,61.3081691 276.552065,61.6243967 C276.682276,61.9397789 276.99174,62.1460878 277.333333,62.1460878 L300.691057,62.1460878 L324.04878,62.1460878 C324.104585,62.1460878 324.154472,62.1249496 324.20774,62.1139577 C324.260163,62.1249496 324.310049,62.1460878 324.365854,62.1460878 L347.723577,62.1460878 C347.779382,62.1460878 347.829268,62.1249496 347.881691,62.1139577 C347.934959,62.1249496 347.984846,62.1460878 348.04065,62.1460878 L370.730407,62.1460878 L370.730407,84.9753561 C370.730407,85.0320065 370.751545,85.0810472 370.762537,85.1343154 C370.751545,85.1867382 370.730407,85.2366244 370.730407,85.2924293 L370.730407,108.650153 C370.730407,108.706803 370.751545,108.755844 370.762537,108.809112 C370.751545,108.861535 370.730407,108.911421 370.730407,108.967226 L370.730407,132.32495 C370.730407,132.3816 370.751545,132.430641 370.762537,132.483909 C370.751545,132.536332 370.730407,132.586218 370.730407,132.642023 L370.730407,155.999746 C370.730407,156.056397 370.751545,156.105437 370.762537,156.158706 C370.751545,156.211128 370.730407,156.261015 370.730407,156.31682 L370.730407,179.674543 C370.730407,179.731193 370.751545,179.780234 370.762537,179.833502 C370.751545,179.885925 370.730407,179.935811 370.730407,179.991616 L370.730407,203.34934 C370.730407,203.40599 370.751545,203.455031 370.762537,203.508299 C370.751545,203.560722 370.730407,203.610608 370.730407,203.666413 L370.730407,227.024137 C370.730407,227.080787 370.751545,227.129828 370.762537,227.183096 C370.751545,227.235519 370.730407,227.285405 370.730407,227.34121 L370.730407,250.698933 C370.730407,250.755584 370.751545,250.804624 370.762537,250.857893 C370.751545,250.910315 370.730407,250.960202 370.730407,251.016007 L370.730407,273.528202 L365.075512,273.528202 C364.60878,273.528202 364.229984,273.906998 364.229984,274.37373 L364.229984,279.446901 L358.311285,279.446901 C357.844553,279.446901 357.465756,279.825698 357.465756,280.292429 L357.465756,286.211128 C357.465756,286.678706 357.844553,287.056657 358.311285,287.056657 L408.197463,287.056657 C408.665041,287.056657 409.042992,286.678706 409.042992,286.211128 L409.042992,280.292429 C409.042992,279.825698 408.665041,279.446901 408.197463,279.446901 L402.278764,279.446901 L402.278764,274.37373 C402.278764,273.906998 401.900813,273.528202 401.433236,273.528202 L395.779187,273.528202 L395.779187,251.016007 C395.779187,250.960202 395.758049,250.910315 395.747057,250.857893 C395.758049,250.804624 395.779187,250.755584 395.779187,250.698933 L395.779187,227.34121 C395.779187,227.285405 395.758049,227.235519 395.747057,227.183096 C395.758049,227.129828 395.779187,227.080787 395.779187,227.024137 L395.779187,203.666413 C395.779187,203.610608 395.758049,203.560722 395.747057,203.508299 C395.758049,203.455031 395.779187,203.40599 395.779187,203.34934 L395.779187,179.991616 C395.779187,179.935811 395.758049,179.885925 395.747057,179.833502 C395.758049,179.780234 395.779187,179.731193 395.779187,179.674543 L395.779187,156.31682 C395.779187,156.261015 395.758049,156.211128 395.747057,156.158706 C395.758049,156.105437 395.779187,156.056397 395.779187,155.999746 L395.779187,132.642023 C395.779187,132.586218 395.758049,132.536332 395.747057,132.483909 C395.758049,132.430641 395.779187,132.3816 395.779187,132.32495 L395.779187,108.967226 C395.779187,108.911421 395.758049,108.861535 395.747057,108.809112 C395.758049,108.755844 395.779187,108.706803 395.779187,108.650153 L395.779187,85.2924293 C395.779187,85.2366244 395.758049,85.1867382 395.747057,85.1343154 C395.758049,85.0810472 395.779187,85.0320065 395.779187,84.9753561 L395.779187,62.1460878 L418.747967,62.1460878 C418.803772,62.1460878 418.853659,62.1249496 418.906927,62.1139577 C418.95935,62.1249496 419.009236,62.1460878 419.065041,62.1460878 L442.422764,62.1460878 C442.890341,62.1460878 443.268293,61.7681366 443.268293,61.3005593 L443.268293,37.9428358 C443.268293,37.4761041 442.890341,37.0973073 442.422764,37.0973073 L442.422764,37.0973073 Z"
                      id="Fill-12" fill="#8291A9"></path>
                <polygon id="Fill-13" fill="#8291A9"
                         points="283.674797 68.9105691 353.00813 68.9105691 353.00813 62.1463415 283.674797 62.1463415"></polygon>
                <path d="M284.520325,68.0650407 L352.162602,68.0650407 L352.162602,62.9918699 L284.520325,62.9918699 L284.520325,68.0650407 Z M353.00813,69.7560976 L283.674797,69.7560976 C283.20722,69.7560976 282.829268,69.3781463 282.829268,68.9105691 L282.829268,62.1463415 C282.829268,61.6787642 283.20722,61.300813 283.674797,61.300813 L353.00813,61.300813 C353.475707,61.300813 353.853659,61.6787642 353.853659,62.1463415 L353.853659,68.9105691 C353.853659,69.3781463 353.475707,69.7560976 353.00813,69.7560976 L353.00813,69.7560976 Z"
                      id="Fill-14" fill="#26427D"></path>
                <polygon id="Fill-15" fill="#8291A9"
                         points="353.00813 79.902439 370.764228 79.902439 370.764228 62.1463415 353.00813 62.1463415"></polygon>
                <path d="M359.074628,73.9837398 C358.992611,73.9837398 358.92666,73.9177886 358.92666,73.8357724 L358.92666,68.2130081 C358.92666,68.1309919 358.992611,68.0650407 359.074628,68.0650407 L364.697392,68.0650407 C364.779408,68.0650407 364.845359,68.1309919 364.845359,68.2130081 L364.845359,73.8357724 C364.845359,73.9177886 364.779408,73.9837398 364.697392,73.9837398 L359.074628,73.9837398 Z"
                      id="Fill-16" fill="#FFFFFF"></path>
                <path d="M364.69773,67.2195122 L359.074966,67.2195122 C358.526218,67.2195122 358.08147,67.6642602 358.08147,68.2130081 L358.08147,73.8357724 C358.08147,74.3845203 358.526218,74.8292683 359.074966,74.8292683 L364.69773,74.8292683 C365.245633,74.8292683 365.691226,74.3845203 365.691226,73.8357724 L365.691226,68.2130081 C365.691226,67.6642602 365.245633,67.2195122 364.69773,67.2195122 L364.69773,67.2195122 Z M359.772527,73.1382114 L364.000169,73.1382114 L364.000169,68.9105691 L359.772527,68.9105691 L359.772527,73.1382114 Z"
                      id="Fill-17" fill="#26427D"></path>
                <path d="M353.853659,79.0569106 L369.918699,79.0569106 L369.918699,62.9918699 L353.853659,62.9918699 L353.853659,79.0569106 Z M370.764228,80.7479675 L353.00813,80.7479675 C352.540553,80.7479675 352.162602,80.3700163 352.162602,79.902439 L352.162602,62.1463415 C352.162602,61.6787642 352.540553,61.300813 353.00813,61.300813 L370.764228,61.300813 C371.231805,61.300813 371.609756,61.6787642 371.609756,62.1463415 L371.609756,79.902439 C371.609756,80.3700163 371.231805,80.7479675 370.764228,80.7479675 L370.764228,80.7479675 Z"
                      id="Fill-18" fill="#26427D"></path>
                <path d="M319.186992,182.211382 C318.96039,182.211382 318.73548,182.121756 318.568911,181.942504 L307.349593,169.922472 L296.130276,181.942504 C295.811512,182.284943 295.278829,182.303545 294.934699,181.983089 C294.593951,181.665171 294.576195,181.129951 294.894114,180.789203 L306.731512,168.106276 C307.051122,167.762992 307.648065,167.762992 307.967675,168.106276 L319.805073,180.789203 C320.122992,181.129951 320.105236,181.665171 319.764488,181.983089 C319.600455,182.13613 319.393301,182.211382 319.186992,182.211382"
                      id="Fill-19" fill="#26427D"></path>
                <path d="M347.934959,238.650407 L172.065041,238.650407 L172.065041,252.17548 C172.065041,255.445984 174.716618,258.097561 177.986276,258.097561 L342.012878,258.097561 C345.283382,258.097561 347.934959,255.445984 347.934959,252.17548 L347.934959,238.650407 Z"
                      id="Fill-20" fill="#8291A9"></path>
                <path d="M172.910569,239.495935 L172.910569,252.17548 C172.910569,254.975024 175.187577,257.252033 177.986276,257.252033 L342.012878,257.252033 C344.812423,257.252033 347.089431,254.975024 347.089431,252.17548 L347.089431,239.495935 L172.910569,239.495935 Z M342.012878,258.943089 L177.986276,258.943089 C174.254959,258.943089 171.219512,255.906797 171.219512,252.17548 L171.219512,238.650407 C171.219512,238.182829 171.598309,237.804878 172.065041,237.804878 L347.934959,237.804878 C348.402537,237.804878 348.780488,238.182829 348.780488,238.650407 L348.780488,252.17548 C348.780488,255.906797 345.744195,258.943089 342.012878,258.943089 L342.012878,258.943089 Z"
                      id="Fill-21" fill="#000000"></path>
                <polygon id="Fill-22" fill="#1C3655"
                         points="0 297.203252 520 297.203252 520 287.902439 0 287.902439"></polygon>
                <path d="M228.292683,286.211382 L291.707317,286.211382 L291.707317,281.98374 L228.292683,281.98374 L228.292683,286.211382 Z M292.552846,287.902439 L227.447154,287.902439 C226.980423,287.902439 226.601626,287.524488 226.601626,287.056911 L226.601626,281.138211 C226.601626,280.670634 226.980423,280.292683 227.447154,280.292683 L292.552846,280.292683 C293.020423,280.292683 293.398374,280.670634 293.398374,281.138211 L293.398374,287.056911 C293.398374,287.524488 293.020423,287.902439 292.552846,287.902439 L292.552846,287.902439 Z"
                      id="Fill-24" fill="#000000"></path>
                <path d="M240.651941,280.292683 L279.348397,280.292683 L276.998673,259.154472 L243.00082,259.154472 L240.651941,280.292683 Z M280.292852,281.98374 L239.707486,281.98374 C239.466511,281.98374 239.237372,281.881431 239.077567,281.702179 C238.916917,281.522927 238.839974,281.283642 238.867031,281.045203 L241.403616,258.215935 C241.450966,257.787252 241.812852,257.463415 242.244072,257.463415 L277.756267,257.463415 C278.187486,257.463415 278.548527,257.787252 278.596722,258.215935 L281.133307,281.045203 C281.159519,281.283642 281.082576,281.522927 280.922771,281.702179 C280.76212,281.881431 280.532982,281.98374 280.292852,281.98374 L280.292852,281.98374 Z"
                      id="Fill-25" fill="#000000"></path>
                <path d="M304.442667,160.227642 L310.361366,160.227642 L310.361366,147.544715 L304.442667,147.544715 L304.442667,160.227642 Z M311.206894,145.853659 L308.247545,145.853659 L308.247545,62.1463415 C308.247545,61.6787642 307.869593,61.300813 307.402016,61.300813 C306.935285,61.300813 306.556488,61.6787642 306.556488,62.1463415 L306.556488,145.853659 L303.597138,145.853659 C303.130407,145.853659 302.75161,146.23161 302.75161,146.699187 L302.75161,161.073171 C302.75161,161.540748 303.130407,161.918699 303.597138,161.918699 L306.542959,161.918699 L306.542959,165.173984 C306.536195,165.21626 306.517593,165.256 306.517593,165.300813 C306.517593,165.76839 306.895545,166.146341 307.363122,166.146341 C308.294894,166.146341 309.054179,166.903935 309.054179,167.837398 C309.054179,168.770862 308.294894,169.528455 307.363122,169.528455 C306.562407,169.528455 305.866537,168.961106 305.706732,168.178992 C305.612878,167.721561 305.164748,167.426472 304.709008,167.520325 C304.251577,167.613333 303.956488,168.060618 304.050341,168.518049 C304.369951,170.083122 305.762537,171.219512 307.363122,171.219512 C309.228358,171.219512 310.745236,169.701789 310.745236,167.837398 C310.745236,166.274862 309.675642,164.970211 308.234016,164.582959 L308.234016,161.918699 L311.206894,161.918699 C311.674472,161.918699 312.052423,161.540748 312.052423,161.073171 L312.052423,146.699187 C312.052423,146.23161 311.674472,145.853659 311.206894,145.853659 L311.206894,145.853659 Z"
                      id="Fill-26" fill="#26427D"></path>
                <rect id="矩形" fill="#EBF1FA" x="304.442667" y="147.544715" width="5.91869919"
                      height="12.6829268"></rect>
                <polygon id="Fill-27" fill="#467FE0"
                         points="290.439024 205.04065 325.95122 205.04065 325.95122 181.365854 290.439024 181.365854"></polygon>
                <path d="M291.284553,204.195122 L325.105691,204.195122 L325.105691,182.211382 L291.284553,182.211382 L291.284553,204.195122 Z M325.95122,205.886179 L290.439024,205.886179 C289.971447,205.886179 289.593496,205.508228 289.593496,205.04065 L289.593496,181.365854 C289.593496,180.898276 289.971447,180.520325 290.439024,180.520325 L325.95122,180.520325 C326.418797,180.520325 326.796748,180.898276 326.796748,181.365854 L326.796748,205.04065 C326.796748,205.508228 326.418797,205.886179 325.95122,205.886179 L325.95122,205.886179 Z"
                      id="Fill-28" fill="#26427D"></path>
                <polygon id="Fill-29" fill="#B6D0FA"
                         points="194.894309 210.95935 230.406504 210.95935 230.406504 187.284553 194.894309 187.284553"></polygon>
                <path d="M195.739837,210.113821 L229.560976,210.113821 L229.560976,188.130081 L195.739837,188.130081 L195.739837,210.113821 Z M230.406504,211.804878 L194.894309,211.804878 C194.427577,211.804878 194.04878,211.426927 194.04878,210.95935 L194.04878,187.284553 C194.04878,186.816976 194.427577,186.439024 194.894309,186.439024 L230.406504,186.439024 C230.873236,186.439024 231.252033,186.816976 231.252033,187.284553 L231.252033,210.95935 C231.252033,211.426927 230.873236,211.804878 230.406504,211.804878 L230.406504,211.804878 Z"
                      id="Fill-30" fill="#415B91"></path>
                <polygon id="Fill-31" fill="#B6D0FA"
                         points="243.089431 210.95935 278.601626 210.95935 278.601626 187.284553 243.089431 187.284553"></polygon>
                <path d="M243.934959,210.113821 L277.756098,210.113821 L277.756098,188.130081 L243.934959,188.130081 L243.934959,210.113821 Z M278.601626,211.804878 L243.089431,211.804878 C242.622699,211.804878 242.243902,211.426927 242.243902,210.95935 L242.243902,187.284553 C242.243902,186.816976 242.622699,186.439024 243.089431,186.439024 L278.601626,186.439024 C279.069203,186.439024 279.447154,186.816976 279.447154,187.284553 L279.447154,210.95935 C279.447154,211.426927 279.069203,211.804878 278.601626,211.804878 L278.601626,211.804878 Z"
                      id="Fill-32" fill="#26427D"></path>
                <path d="M214.341463,221.95122 C214.808195,221.95122 215.186992,222.329171 215.186992,222.796748 C215.186992,223.264325 214.808195,223.642276 214.341463,223.642276 L214.341463,223.642276 L194.894309,223.642276 C194.427577,223.642276 194.04878,223.264325 194.04878,222.796748 C194.04878,222.329171 194.427577,221.95122 194.894309,221.95122 L194.894309,221.95122 Z M225.574816,221.95122 C226.041548,221.95122 226.420345,222.329171 226.420345,222.796748 C226.420345,223.264325 226.041548,223.642276 225.574816,223.642276 L225.574816,223.642276 L218.327792,223.642276 C217.860215,223.642276 217.482263,223.264325 217.482263,222.796748 C217.482263,222.329171 217.860215,221.95122 218.327792,221.95122 L218.327792,221.95122 Z M262.536585,221.95122 C263.003317,221.95122 263.382114,222.329171 263.382114,222.796748 C263.382114,223.264325 263.003317,223.642276 262.536585,223.642276 L262.536585,223.642276 L243.089431,223.642276 C242.622699,223.642276 242.243902,223.264325 242.243902,222.796748 C242.243902,222.329171 242.622699,221.95122 243.089431,221.95122 L243.089431,221.95122 Z M273.770361,221.95122 C274.237938,221.95122 274.615889,222.329171 274.615889,222.796748 C274.615889,223.264325 274.237938,223.642276 273.770361,223.642276 L273.770361,223.642276 L266.522491,223.642276 C266.055759,223.642276 265.676963,223.264325 265.676963,222.796748 C265.676963,222.329171 266.055759,221.95122 266.522491,221.95122 L266.522491,221.95122 Z M310.308098,221.776956 C310.775675,221.776956 311.153626,222.154907 311.153626,222.622485 C311.153626,223.090062 310.775675,223.468013 310.308098,223.468013 L310.308098,223.468013 L290.860943,223.468013 C290.393366,223.468013 290.015415,223.090062 290.015415,222.622485 C290.015415,222.154907 290.393366,221.776956 290.860943,221.776956 L290.860943,221.776956 Z M321.541112,221.776956 C322.008689,221.776956 322.386641,222.154907 322.386641,222.622485 C322.386641,223.090062 322.008689,223.468013 321.541112,223.468013 L321.541112,223.468013 L314.294088,223.468013 C313.826511,223.468013 313.448559,223.090062 313.448559,222.622485 C313.448559,222.154907 313.826511,221.776956 314.294088,221.776956 L314.294088,221.776956 Z M208.669659,215.186992 C209.13639,215.186992 209.515187,215.564943 209.515187,216.03252 C209.515187,216.500098 209.13639,216.878049 208.669659,216.878049 L208.669659,216.878049 L194.894309,216.878049 C194.427577,216.878049 194.04878,216.500098 194.04878,216.03252 C194.04878,215.564943 194.427577,215.186992 194.894309,215.186992 L194.894309,215.186992 Z M230.406504,215.186992 C230.873236,215.186992 231.252033,215.564943 231.252033,216.03252 C231.252033,216.500098 230.873236,216.878049 230.406504,216.878049 L230.406504,216.878049 L213.495935,216.878049 C213.029203,216.878049 212.650407,216.500098 212.650407,216.03252 C212.650407,215.564943 213.029203,215.186992 213.495935,215.186992 L213.495935,215.186992 Z M256.86478,215.186992 C257.331512,215.186992 257.710309,215.564943 257.710309,216.03252 C257.710309,216.500098 257.331512,216.878049 256.86478,216.878049 L256.86478,216.878049 L243.089431,216.878049 C242.622699,216.878049 242.243902,216.500098 242.243902,216.03252 C242.243902,215.564943 242.622699,215.186992 243.089431,215.186992 L243.089431,215.186992 Z M278.601626,215.186992 C279.069203,215.186992 279.447154,215.564943 279.447154,216.03252 C279.447154,216.500098 279.069203,216.878049 278.601626,216.878049 L278.601626,216.878049 L261.691057,216.878049 C261.224325,216.878049 260.845528,216.500098 260.845528,216.03252 C260.845528,215.564943 261.224325,215.186992 261.691057,215.186992 L261.691057,215.186992 Z M326.373138,215.012728 C326.840715,215.012728 327.218667,215.39068 327.218667,215.858257 C327.218667,216.325834 326.840715,216.703785 326.373138,216.703785 L326.373138,216.703785 L309.462569,216.703785 C308.994992,216.703785 308.617041,216.325834 308.617041,215.858257 C308.617041,215.39068 308.994992,215.012728 309.462569,215.012728 L309.462569,215.012728 Z M304.635447,215.012728 C305.103024,215.012728 305.480976,215.39068 305.480976,215.858257 C305.480976,216.325834 305.103024,216.703785 304.635447,216.703785 L304.635447,216.703785 L290.860943,216.703785 C290.393366,216.703785 290.015415,216.325834 290.015415,215.858257 C290.015415,215.39068 290.393366,215.012728 290.860943,215.012728 L290.860943,215.012728 Z"
                      id="形状结合" fill="#26427D"></path>
                <path d="M265.073171,248.373984 C265.073171,251.17522 262.801236,253.447154 260,253.447154 C257.198764,253.447154 254.926829,251.17522 254.926829,248.373984 C254.926829,245.572748 257.198764,243.300813 260,243.300813 C262.801236,243.300813 265.073171,245.572748 265.073171,248.373984"
                      id="Fill-45" fill="#EBF1FA"></path>
                <path d="M260,244.146341 C257.668878,244.146341 255.772358,246.042862 255.772358,248.373984 C255.772358,250.705106 257.668878,252.601626 260,252.601626 C262.331122,252.601626 264.227642,250.705106 264.227642,248.373984 C264.227642,246.042862 262.331122,244.146341 260,244.146341 M260,254.292683 C256.73626,254.292683 254.081301,251.636878 254.081301,248.373984 C254.081301,245.111089 256.73626,242.455285 260,242.455285 C263.26374,242.455285 265.918699,245.111089 265.918699,248.373984 C265.918699,251.636878 263.26374,254.292683 260,254.292683"
                      id="Fill-46" fill="#000000"></path>
                <path d="M105.762927,285.763844 L96.1205203,276.121437 L105.762927,266.478185 L105.762927,285.763844 Z M85.1844553,287.056657 L94.9249431,277.317015 L104.665431,287.056657 L85.1844553,287.056657 Z M84.0962602,266.488332 L93.7293659,276.121437 L84.0962602,285.753698 L84.0962602,266.488332 Z M93.7505041,181.507649 L84.1300813,191.128072 L84.1300813,171.88638 L93.7505041,181.507649 Z M105.762927,171.88638 L105.762927,191.128072 L96.1425041,181.507649 L105.762927,171.88638 Z M96.1205203,252.446641 L105.762927,242.803389 L105.762927,262.089047 L96.1205203,252.446641 Z M94.9249431,253.642218 L104.665431,263.38186 L85.1844553,263.38186 L94.9249431,253.642218 Z M85.3890732,241.715193 L104.459967,241.715193 L94.9249431,251.251063 L85.3890732,241.715193 Z M93.7293659,252.446641 L84.0962602,262.078901 L84.0962602,242.813535 L93.7293659,252.446641 Z M105.762927,238.41425 L96.1205203,228.771844 L105.762927,219.128592 L105.762927,238.41425 Z M93.7293659,228.771844 L84.0962602,238.404104 L84.0962602,219.138738 L93.7293659,228.771844 Z M104.665431,239.707063 L85.1844553,239.707063 L94.9249431,229.967421 L104.665431,239.707063 Z M85.3890732,218.040397 L104.459967,218.040397 L94.9249431,227.576267 L85.3890732,218.040397 Z M85.2918374,192.35747 L94.9469268,182.703226 L104.601171,192.35747 L85.2918374,192.35747 Z M105.762927,214.739454 L96.1205203,205.097047 L105.762927,195.453795 L105.762927,214.739454 Z M93.7293659,205.097047 L84.0962602,214.729307 L84.0962602,195.463941 L93.7293659,205.097047 Z M104.665431,216.032267 L85.1844553,216.032267 L94.9249431,206.292624 L104.665431,216.032267 Z M85.3890732,194.3656 L104.459967,194.3656 L94.9249431,203.90147 L85.3890732,194.3656 Z M104.459967,265.38999 L94.9249431,274.92586 L85.3890732,265.38999 L104.459967,265.38999 Z M107.453984,192.988234 L107.453984,169.845275 C107.453984,169.503681 107.24852,169.195063 106.932293,169.064007 C106.61522,168.933795 106.252488,169.00482 106.010667,169.247486 L94.9469268,180.312072 L83.8823415,169.247486 C83.6405203,169.00482 83.2777886,168.933795 82.9607154,169.064007 C82.6444878,169.195063 82.4390244,169.503681 82.4390244,169.845275 L82.4390244,192.988234 C82.4052033,193.116754 82.4043577,193.249502 82.4331057,193.380559 C82.4246504,193.427909 82.4052033,193.471031 82.4052033,193.520072 L82.4052033,216.877795 C82.4052033,216.934446 82.4263415,216.983486 82.4373333,217.036754 C82.4263415,217.089177 82.4052033,217.139063 82.4052033,217.194868 L82.4052033,240.552592 C82.4052033,240.609242 82.4263415,240.658283 82.4373333,240.711551 C82.4263415,240.763974 82.4052033,240.81386 82.4052033,240.869665 L82.4052033,264.227389 C82.4052033,264.284039 82.4263415,264.33308 82.4373333,264.386348 C82.4263415,264.438771 82.4052033,264.488657 82.4052033,264.544462 L82.4052033,287.902185 C82.4052033,288.369763 82.7831545,288.747714 83.2507317,288.747714 L106.608455,288.747714 C107.076033,288.747714 107.453984,288.369763 107.453984,287.902185 L107.453984,264.544462 C107.453984,264.488657 107.432846,264.438771 107.421854,264.386348 C107.432846,264.33308 107.453984,264.284039 107.453984,264.227389 L107.453984,240.869665 C107.453984,240.81386 107.432846,240.763974 107.421854,240.711551 C107.432846,240.658283 107.453984,240.609242 107.453984,240.552592 L107.453984,217.194868 C107.453984,217.139063 107.432846,217.089177 107.421854,217.036754 C107.432846,216.983486 107.453984,216.934446 107.453984,216.877795 L107.453984,193.520072 C107.453984,193.498088 107.442992,193.478641 107.441301,193.456657 C107.490341,193.301925 107.494569,193.141275 107.453984,192.988234 L107.453984,192.988234 Z"
                      id="Fill-47" fill="#8291A9"></path>
                <g id="编组" transform="translate(131.620455, 0.000000)">
                    <path d="M66.2505992,34.1342969 C66.2505992,52.121315 51.6691138,66.7028004 33.6820958,66.7028004 C15.6950777,66.7028004 1.11359229,52.121315 1.11359229,34.1342969 C1.11359229,16.1472788 15.6950777,1.56579344 33.6820958,1.56579344 C51.6691138,1.56579344 66.2505992,16.1472788 66.2505992,34.1342969"
                          id="Fill-48" fill="#648ED3"></path>
                    <path d="M33.6820958,2.15213311 C16.0471306,2.15213311 1.69993196,16.4993318 1.69993196,34.1342969 C1.69993196,51.769262 16.0471306,66.1164607 33.6820958,66.1164607 C51.3170609,66.1164607 65.6642595,51.769262 65.6642595,34.1342969 C65.6642595,16.4993318 51.3170609,2.15213311 33.6820958,2.15213311 M33.6820958,67.5378902 C15.2632123,67.5378902 0.278502459,52.5531804 0.278502459,34.1342969 C0.278502459,15.7154134 15.2632123,0.730703603 33.6820958,0.730703603 C52.1009792,0.730703603 67.085689,15.7154134 67.085689,34.1342969 C67.085689,52.5531804 52.1009792,67.5378902 33.6820958,67.5378902"
                          id="Fill-49" fill="#26427D"></path>
                    <path d="M60.4049704,34.1342969 C60.4049704,48.8931105 48.4409094,60.8571715 33.6820958,60.8571715 C18.9232822,60.8571715 6.95922112,48.8931105 6.95922112,34.1342969 C6.95922112,19.3754833 18.9232822,7.41142226 33.6820958,7.41142226 C48.4409094,7.41142226 60.4049704,19.3754833 60.4049704,34.1342969"
                          id="Fill-50" fill="#D9E8FF"></path>
                    <path d="M33.6820958,7.99867898 C19.2708805,7.99867898 7.54647784,19.7230816 7.54647784,34.1342969 C7.54647784,48.5455122 19.2708805,60.2699148 33.6820958,60.2699148 C48.093311,60.2699148 59.8177137,48.5455122 59.8177137,34.1342969 C59.8177137,19.7230816 48.093311,7.99867898 33.6820958,7.99867898 M33.6820958,61.6922614 C18.4864564,61.6922614 6.12413129,49.3299363 6.12413129,34.1342969 C6.12413129,18.9386575 18.4864564,6.57633243 33.6820958,6.57633243 C48.8777352,6.57633243 61.2400602,18.9386575 61.2400602,34.1342969 C61.2400602,49.3299363 48.8777352,61.6922614 33.6820958,61.6922614"
                          id="Fill-51" fill="#415B91"></path>
                    <path d="M34.3570856,12.9110909 C34.3464191,12.9110909 34.3364638,12.9110909 34.3265084,12.9103742 C34.1138901,12.9046409 33.8998496,12.9010576 33.685098,12.9010576 C33.0963088,12.9010576 32.5964069,12.4201759 32.5964069,11.8267779 C32.5964069,11.2326633 33.0522207,10.7517816 33.641721,10.7517816 L33.641721,11.8267779 L33.6509653,10.7517816 C33.9233158,10.7546482 34.1544227,10.7546482 34.3862406,10.7618149 C34.9750298,10.7775815 35.4386657,11.2727965 35.4230215,11.8661944 C35.4066663,12.4488425 34.9323639,12.9110909 34.3570856,12.9110909 M25.938396,14.2827862 C25.5039151,14.2827862 25.0957449,14.0133204 24.93717,13.5783053 C24.7345071,13.0207405 25.0182352,12.4029759 25.5714694,12.1987266 C25.8054207,12.1120103 26.0407941,12.0295939 26.2783009,11.9500442 C26.8365128,11.7629948 27.4409462,12.0682938 27.6265427,12.6330252 C27.8107171,13.1963232 27.5077894,13.8047711 26.9488663,13.9911038 C26.7326925,14.0627703 26.518652,14.1387367 26.3060337,14.2168531 C26.1844359,14.2620029 26.0607049,14.2827862 25.938396,14.2827862 M42.0213002,14.5099687 C41.889747,14.5099687 41.7567717,14.4856021 41.6273519,14.4340023 C41.4161557,14.3494359 41.2035374,14.2677362 40.9894969,14.1896198 C40.4348405,13.9882372 40.1482679,13.371906 40.3480865,12.8129079 C40.5486161,12.2553431 41.1615826,11.9665274 41.7133947,12.1671934 C41.9494793,12.2531931 42.1834305,12.3434928 42.4159596,12.4366592 C42.9627939,12.6559584 43.2301668,13.2808896 43.0125708,13.8320044 C42.8461739,14.2541196 42.4458257,14.5099687 42.0213002,14.5099687 M19.1730094,18.2459393 C18.8700816,18.2459393 18.567865,18.1169397 18.3573799,17.8639573 C17.9776536,17.4103088 18.0345414,16.7323445 18.4846665,16.3496458 C18.6752408,16.186963 18.8686594,16.0285802 19.0649225,15.8723474 C19.5264251,15.5032653 20.1977016,15.5828151 20.563206,16.0493635 C20.9279993,16.5144785 20.8497785,17.1910096 20.3875648,17.5586583 C20.2090792,17.7012745 20.033438,17.8460406 19.8606412,17.9929568 C19.6601115,18.1628062 19.4162049,18.2459393 19.1730094,18.2459393 M48.6750444,18.6630379 C48.4218935,18.6630379 48.1673204,18.5727382 47.9639464,18.3899888 C47.7954162,18.2373393 47.6240415,18.0889898 47.4505336,17.9427903 C46.9982753,17.561525 46.9378319,16.8842773 47.315425,16.4284788 C47.6923069,15.9726804 48.3650057,15.9117639 48.817264,16.2923126 C49.0099716,16.4535621 49.1998348,16.6191115 49.3861424,16.7868109 C49.825601,17.1831263 49.8632892,17.8625239 49.470052,18.3047057 C49.259567,18.5419216 48.9680168,18.6630379 48.6750444,18.6630379 M14.1448352,24.2924353 C13.9635052,24.2924353 13.7800419,24.2458521 13.6122228,24.1483857 C13.1023655,23.8516868 12.9274354,23.1945057 13.22183,22.6799408 C13.3476943,22.4606415 13.4764031,22.2434923 13.6086673,22.0299263 C13.9208393,21.5261114 14.578605,21.3727452 15.0785069,21.6866442 C15.5776977,22.0012598 15.7305838,22.6634575 15.4191229,23.1679891 C15.2989473,23.3607718 15.1830383,23.5564211 15.0692626,23.7549371 C14.8722885,24.0996526 14.513184,24.2924353 14.1448352,24.2924353 M53.5325551,24.8457 C53.1535398,24.8457 52.7866132,24.6421674 52.5939057,24.282402 C52.4858188,24.0824526 52.3748875,23.88322 52.2604007,23.684704 C51.9638728,23.1715724 52.1359585,22.5136747 52.6451047,22.2148257 C53.1542509,21.9152601 53.8063278,22.0894095 54.1035668,22.602541 C54.22872,22.8189736 54.3510289,23.0382729 54.4697823,23.2590055 C54.7499549,23.7814537 54.5579584,24.4336181 54.039568,24.7167005 C53.8781487,24.8048502 53.7046408,24.8457 53.5325551,24.8457 M11.473951,31.7056099 C11.4127966,31.7056099 11.3509311,31.7005932 11.2897766,31.6891266 C10.7095206,31.588077 10.32055,31.0305122 10.4215259,30.4464309 C10.4641918,30.1970317 10.5118354,29.9490659 10.5630344,29.7032501 C10.68321,29.1213187 11.2463996,28.7479367 11.8245223,28.8697696 C12.4012228,28.9908858 12.7709938,29.5599172 12.6508183,30.1411319 C12.6045969,30.3647311 12.5626421,30.589047 12.5235317,30.8140796 C12.4332223,31.3372445 11.9823861,31.7056099 11.473951,31.7056099 M55.9965097,32.3298244 C55.475986,32.3298244 55.0201721,31.9456924 54.9426625,31.4103442 C54.9092408,31.1838783 54.8729748,30.9574124 54.8331534,30.7316632 C54.729333,30.1475819 55.1161704,29.5885838 55.6964264,29.4853842 C56.2759713,29.3829012 56.8299166,29.7706165 56.9330258,30.3554145 C56.9771139,30.601947 57.0169354,30.8491962 57.0532014,31.0985953 C57.1385332,31.6855433 56.7360517,32.2316414 56.1529513,32.3183578 C56.10033,32.3262411 56.0477088,32.3298244 55.9965097,32.3298244 M11.4782176,39.5910662 C10.9704936,39.5910662 10.5203686,39.2241342 10.429348,38.7024026 C10.385971,38.4558701 10.3461495,38.2071876 10.3105946,37.9577885 C10.2266851,37.3701238 10.6312998,36.825459 11.2144002,36.7408927 C11.7946562,36.6534596 12.3386462,37.0633916 12.4225558,37.6510562 C12.4545552,37.8782388 12.4908212,38.103988 12.5299316,38.3290206 C12.6323297,38.9131019 12.2454924,39.4713833 11.6652364,39.574583 C11.6026598,39.5860496 11.5400831,39.5910662 11.4782176,39.5910662 M55.7732249,40.2138474 C55.7021151,40.2138474 55.6302942,40.2066808 55.5577622,40.1916308 C54.9803506,40.0719479 54.6091575,39.5036332 54.7271997,38.9224185 C54.77271,38.6981026 54.8153759,38.4737867 54.8544863,38.2480375 C54.9547511,37.6618062 55.5101187,37.2712242 56.0868192,37.3708405 C56.6670752,37.4718902 57.0567569,38.0280216 56.9564921,38.6128196 C56.9138262,38.8615021 56.8676048,39.1087512 56.8171169,39.354567 C56.7132965,39.8633986 56.2688603,40.2138474 55.7732249,40.2138474 M14.1675903,46.9970742 C13.7999527,46.9970742 13.4422704,46.8050082 13.2445851,46.4617261 C13.1194319,46.2452935 12.9978341,46.0259942 12.8790807,45.804545 C12.5996192,45.2820968 12.7930379,44.6299323 13.3114283,44.3475666 C13.8305299,44.0659176 14.476918,44.2615669 14.7563795,44.7832985 C14.8644664,44.9846811 14.9746866,45.1839138 15.0884623,45.3817131 C15.3849902,45.8948447 15.2114823,46.5527424 14.7023361,46.8508747 C14.5338058,46.9497744 14.3496314,46.9970742 14.1675903,46.9970742 M52.8783449,47.541739 C52.6863484,47.541739 52.4922186,47.4901392 52.3172885,47.3812062 C51.8166755,47.068024 51.6623672,46.4051096 51.972406,45.900578 C52.0918705,45.706362 52.2084905,45.5092793 52.3215551,45.31148 C52.6159497,44.7961984 53.2680266,44.619899 53.778595,44.9158813 C54.2891634,45.2118637 54.4648046,45.8690448 54.1711211,46.3836097 C54.0459678,46.6029089 53.9179702,46.8186248 53.785706,47.0329074 C53.5844652,47.3611396 53.2353161,47.541739 52.8783449,47.541739 M19.2021644,53.0321036 C18.9603911,53.0321036 18.7171955,52.9496872 18.517377,52.7805544 C18.3260916,52.6185883 18.1369395,52.4537556 17.951343,52.2860561 C17.5125955,51.8904575 17.4749073,51.2103431 17.8674334,50.7681613 C18.2599595,50.3266962 18.9347915,50.2879963 19.373539,50.6835949 C19.5434914,50.8369611 19.7155772,50.9867439 19.8890851,51.1343767 C20.3406323,51.5163588 20.3989424,52.1943231 20.0199271,52.6486882 C19.808731,52.9023874 19.5065144,53.0321036 19.2021644,53.0321036 M47.6787961,53.4348689 C47.3652018,53.4348689 47.054452,53.2965527 46.843967,53.0292369 C46.4763293,52.5655552 46.5524168,51.8897408 47.0132083,51.5192254 C47.1916939,51.3758926 47.3687573,51.2304097 47.5429764,51.0820602 C47.9938125,50.6993616 48.6672223,50.755978 49.0462376,51.2103431 C49.4259639,51.6639916 49.3690761,52.3426726 48.918951,52.7253713 C48.7290879,52.8859041 48.5370914,53.0442869 48.3429616,53.2005197 C48.1466986,53.3581858 47.9120362,53.4348689 47.6787961,53.4348689 M25.9775064,56.9852234 C25.8566198,56.9852234 25.7335998,56.9644401 25.6127131,56.9200069 C25.3773397,56.8340072 25.1426773,56.7437075 24.9108594,56.6498245 C24.364025,56.429092 24.0987854,55.8027274 24.3178036,55.2516126 C24.5368218,54.7004979 25.1583215,54.4331821 25.7051559,54.6539147 C25.9156409,54.7391977 26.1282592,54.8208975 26.3422997,54.9004472 C26.8962451,55.1032632 27.1813954,55.720311 26.9801546,56.2785925 C26.8222909,56.7143243 26.4134095,56.9852234 25.9775064,56.9852234 M40.7982115,57.1937727 C40.3502198,57.1937727 39.9335163,56.9085403 39.785608,56.4570419 C39.6000114,55.8937438 39.9029391,55.2852959 40.4625733,55.0982465 C40.6773249,55.0272967 40.8906543,54.9506137 41.1025615,54.8724973 C41.6529514,54.6632313 42.2680512,54.949897 42.4728474,55.5074618 C42.6776436,56.0635932 42.3953377,56.6820744 41.8428146,56.887757 C41.6081522,56.9759067 41.3713566,57.0597565 41.1331387,57.1393062 C41.0222074,57.1765727 40.9091428,57.1937727 40.7982115,57.1937727 M33.7718519,58.351902 L33.685098,58.351902 C33.4347915,58.351902 33.185196,58.3483187 32.9356006,58.3404354 C32.3468115,58.3210855 31.8853088,57.8244372 31.9045085,57.2317559 C31.922997,56.6376412 32.4115214,56.1352596 33.0045771,56.1918761 C33.2307063,56.1983261 33.4575466,56.2019094 33.685098,56.2019094 L33.7718519,56.2019094 C34.3613522,56.2019094 34.838499,56.6835077 34.838499,57.2769057 C34.838499,57.8703037 34.3613522,58.351902 33.7718519,58.351902"
                          id="Fill-53" fill="#26427D"></path>
                    <path d="M33.4183696,39.1865904 C33.1546596,39.1865904 32.892356,39.1105972 32.6631041,38.9600583 C32.2573422,38.6937204 32.0119161,38.2341426 32.0119161,37.7391013 L32.0119161,18.9217438 C32.0119161,18.1227298 32.6420073,17.4742547 33.4183696,17.4742547 C34.194732,17.4742547 34.8248232,18.1227298 34.8248232,18.9217438 L34.8248232,35.4658198 L43.3718413,31.3607409 C44.0764745,31.0220284 44.9126111,31.3361336 45.241018,32.0606018 C45.5694249,32.7850701 45.2656309,33.6470498 44.5617009,33.9850385 L34.0132995,39.0512502 C33.8241315,39.1417182 33.6208989,39.1865904 33.4183696,39.1865904"
                          id="Fill-54" fill="#26427D"></path>
                </g>
                <path d="M125.580338,118.451603 C125.560891,118.451603 125.541444,118.450758 125.521151,118.449912 C125.270875,118.438075 125.018062,118.433002 124.765249,118.433002 C124.064306,118.433002 123.478354,117.864807 123.478354,117.164709 C123.478354,116.463766 124.027948,115.896416 124.728046,115.896416 L124.765249,115.896416 C125.056956,115.896416 125.348663,115.90318 125.637834,115.916709 C126.337932,115.947993 126.87907,116.541554 126.84694,117.240807 C126.81481,117.921457 126.254224,118.451603 125.580338,118.451603 M117.324598,120.139278 C116.85533,120.139278 116.402972,119.87801 116.18398,119.426498 C115.877054,118.796579 116.139167,118.037294 116.769086,117.730367 C117.042192,117.59762 117.31868,117.471636 117.600241,117.351571 C118.243688,117.076774 118.989444,117.376937 119.264241,118.020384 C119.539037,118.665522 119.23972,119.410433 118.595428,119.685229 C118.353607,119.788384 118.114322,119.896611 117.879265,120.011603 C117.700859,120.097847 117.51146,120.139278 117.324598,120.139278 M132.899233,120.496937 C132.693769,120.496937 132.485769,120.44705 132.292143,120.341359 C132.063005,120.216221 131.829639,120.096156 131.592891,119.983701 C130.961281,119.681002 130.694094,118.923408 130.997639,118.291798 C131.299493,117.659343 132.057086,117.392156 132.688696,117.695701 C132.966029,117.829294 133.239135,117.968807 133.508013,118.115928 C134.123558,118.451603 134.349314,119.22188 134.013639,119.836579 C133.78281,120.258498 133.348208,120.496937 132.899233,120.496937 M111.389834,124.892839 C111.113346,124.892839 110.834322,124.803213 110.600111,124.616351 C110.052208,124.179213 109.962582,123.38188 110.398875,122.833977 C110.589964,122.595538 110.785281,122.361327 110.987363,122.133034 C111.450712,121.607961 112.252273,121.557229 112.777346,122.020579 C113.30242,122.483928 113.353151,123.285489 112.889802,123.810563 C112.715623,124.007571 112.546517,124.209652 112.382485,124.415961 C112.132208,124.729652 111.762712,124.892839 111.389834,124.892839 M138.613314,125.514302 C138.221834,125.514302 137.835428,125.333359 137.586842,124.991766 C137.431265,124.778693 137.27146,124.569002 137.105737,124.362693 C136.667753,123.816481 136.754842,123.018302 137.301899,122.580319 C137.848111,122.140644 138.646289,122.23027 139.084273,122.775636 C139.274517,123.012384 139.458842,123.253359 139.637249,123.499408 C140.049867,124.065067 139.924728,124.858172 139.35907,125.27079 C139.133314,125.434823 138.872046,125.514302 138.613314,125.514302 M108.09481,131.74162 C108.001802,131.74162 107.907102,131.731473 107.812403,131.710335 C107.129216,131.553912 106.701379,130.874107 106.856956,130.191766 C106.925444,129.89414 106.99985,129.599896 107.081867,129.306498 C107.27042,128.63092 107.96798,128.235213 108.644403,128.426302 C109.319135,128.614855 109.713151,129.314107 109.524598,129.988839 C109.453574,130.241652 109.389314,130.497002 109.330127,130.754888 C109.196533,131.34253 108.673997,131.74162 108.09481,131.74162 M141.588728,132.505977 C140.986712,132.505977 140.452338,132.075603 140.34242,131.462595 C140.29507,131.203018 140.242647,130.944286 140.18346,130.688937 C140.026192,130.00575 140.452338,129.325099 141.13468,129.167831 C141.817021,129.011408 142.497672,129.435018 142.65494,130.11905 C142.723428,130.41414 142.785151,130.712611 142.83842,131.012774 C142.962712,131.702725 142.504436,132.361392 141.81533,132.48653 C141.739233,132.499213 141.663135,132.505977 141.588728,132.505977 M108.099883,139.342075 C107.522387,139.342075 106.999005,138.943831 106.865411,138.357034 C106.796924,138.060254 106.736046,137.760937 106.682777,137.459083 C106.561021,136.769977 107.021834,136.112156 107.711785,135.989554 C108.400891,135.870335 109.058712,136.328611 109.180468,137.018563 C109.226972,137.278985 109.279395,137.53518 109.337737,137.79053 C109.494159,138.473717 109.067167,139.153522 108.384826,139.309945 C108.289281,139.331928 108.193737,139.342075 108.099883,139.342075 M141.236989,140.100514 C141.123688,140.100514 141.010387,140.085294 140.896241,140.05401 C140.221509,139.866302 139.826647,139.16705 140.013509,138.492319 C140.083688,138.239506 140.147948,137.985847 140.205444,137.727961 C140.35933,137.043928 141.038289,136.617782 141.720631,136.767441 C142.403818,136.921327 142.834192,137.599441 142.681151,138.282628 C142.614354,138.581945 142.539948,138.877034 142.457932,139.171278 C142.301509,139.732709 141.791655,140.100514 141.236989,140.100514 M111.412663,146.184937 C111.040631,146.184937 110.67198,146.02175 110.421704,145.708904 C110.23146,145.471311 110.047135,145.228644 109.868728,144.980904 C109.458647,144.413554 109.586322,143.620449 110.153672,143.210367 C110.721867,142.799441 111.514972,142.927961 111.925054,143.496156 C112.07894,143.709229 112.237899,143.91892 112.401932,144.123538 C112.839915,144.670595 112.751135,145.468774 112.204924,145.906758 C111.970712,146.09362 111.690842,146.184937 111.412663,146.184937 M137.61559,146.784416 C137.31881,146.784416 137.021184,146.681262 136.781054,146.470725 C136.254289,146.009912 136.200176,145.208351 136.660989,144.680741 C136.835167,144.482042 137.003428,144.279961 137.16746,144.073652 C137.603753,143.523213 138.401086,143.433587 138.949834,143.867343 C139.498582,144.301945 139.590745,145.100124 139.156143,145.648872 C138.966745,145.888156 138.771428,146.122367 138.570192,146.35066 C138.319915,146.637294 137.968176,146.784416 137.61559,146.784416 M117.354192,150.927506 C117.169867,150.927506 116.981314,150.88692 116.803753,150.801522 C116.528111,150.668774 116.256696,150.528416 115.988663,150.38214 C115.373964,150.04562 115.148208,149.275343 115.483883,148.661489 C115.820403,148.045945 116.589834,147.819343 117.205379,148.155863 C117.436208,148.281847 117.669574,148.402758 117.907167,148.51775 C118.537932,148.82214 118.801737,149.579733 118.497346,150.211343 C118.278354,150.664546 117.825997,150.927506 117.354192,150.927506 M131.466062,151.249652 C130.97481,151.249652 130.506387,150.962172 130.300924,150.481912 C130.02359,149.838465 130.321216,149.092709 130.964663,148.816221 C131.20733,148.711376 131.446615,148.601457 131.683363,148.486465 C132.312436,148.182075 133.07172,148.441652 133.379493,149.071571 C133.685574,149.701489 133.42346,150.460774 132.794387,150.767701 C132.522127,150.900449 132.246485,151.026433 131.966615,151.146498 C131.802582,151.216676 131.633476,151.249652 131.466062,151.249652 M124.837964,152.617717 L124.765249,152.617717 C124.458322,152.617717 124.153932,152.609262 123.850387,152.594888 C123.151135,152.560221 122.612533,151.964969 122.6472,151.265717 C122.681021,150.564774 123.27881,150.046465 123.977216,150.061685 C124.238485,150.074367 124.500598,150.081132 124.765249,150.081132 C125.465346,150.081132 126.069899,150.649327 126.069899,151.349424 C126.069899,152.049522 125.538907,152.617717 124.837964,152.617717"
                      id="Fill-55" fill="#8291A9"></path>
                <path d="M423.754257,159.695889 C423.730582,159.695889 423.706062,159.695044 423.682387,159.694198 C423.426192,159.678979 423.169151,159.672215 422.909574,159.672215 C422.209476,159.672215 421.625216,159.10402 421.625216,158.403922 C421.625216,157.703824 422.178192,157.135629 422.878289,157.135629 L422.909574,157.135629 C423.216501,157.135629 423.522582,157.144085 423.824436,157.160995 C424.523688,157.200735 425.058907,157.799369 425.020013,158.498621 C424.981964,159.174198 424.422224,159.695889 423.754257,159.695889 M415.353086,161.706556 C414.916793,161.706556 414.490647,161.479954 414.256436,161.074946 C413.904696,160.468702 414.110159,159.692507 414.716403,159.341613 C414.988663,159.183499 415.266842,159.03215 415.549249,158.889255 C416.173249,158.573028 416.937607,158.822459 417.253834,159.447304 C417.570907,160.07215 417.320631,160.835662 416.69494,161.151889 C416.455655,161.2728 416.220598,161.40132 415.988924,161.534914 C415.788533,161.651597 415.569541,161.706556 415.353086,161.706556 M431.159395,162.135239 C430.920956,162.135239 430.679135,162.068442 430.465216,161.928085 C430.240306,161.780963 430.011167,161.639759 429.779493,161.506166 C429.172403,161.156117 428.964403,160.380767 429.313607,159.773678 C429.664501,159.166589 430.439005,158.958589 431.046094,159.307792 C431.320891,159.466751 431.59146,159.632475 431.855265,159.805808 C432.440371,160.189678 432.605249,160.97602 432.221379,161.561971 C431.977867,161.933158 431.572013,162.135239 431.159395,162.135239 M409.845314,167.229548 C409.629704,167.229548 409.412403,167.175434 409.212859,167.060442 C408.605769,166.710393 408.397769,165.935044 408.746972,165.327954 C408.905932,165.052312 409.073346,164.782589 409.247525,164.517093 C409.634777,163.932833 410.420273,163.772182 411.004533,164.155207 C411.588793,164.540767 411.751135,165.327954 411.36642,165.91306 C411.218452,166.13628 411.078094,166.363727 410.945346,166.594556 C410.709444,167.002101 410.283298,167.229548 409.845314,167.229548 M436.360241,167.946556 C435.897737,167.946556 435.451298,167.692052 435.228078,167.251532 C435.107167,167.012247 434.979493,166.778881 434.845054,166.548052 C434.492468,165.944345 434.696241,165.167304 435.301639,164.813873 C435.905346,164.461288 436.683233,164.66506 437.036663,165.270459 C437.195623,165.543564 437.347818,165.821743 437.490712,166.104995 C437.807785,166.729841 437.557509,167.493353 436.932663,167.80958 C436.748338,167.902589 436.553867,167.946556 436.360241,167.946556 M407.834647,174.754751 C407.13455,174.754751 406.566354,174.19332 406.566354,173.493223 L406.566354,173.478849 C406.566354,173.165158 406.575655,172.854849 406.593411,172.54454 C406.633151,171.846133 407.23094,171.292312 407.932728,171.352345 C408.63198,171.39293 409.166354,171.99241 409.124924,172.691662 C409.11055,172.952085 409.10294,173.214198 409.10294,173.478849 C409.10294,174.178946 408.534745,174.754751 407.834647,174.754751 M437.961672,175.575759 C437.937151,175.575759 437.912631,175.574914 437.888111,175.573223 C437.188859,175.533483 436.654485,174.934003 436.69507,174.234751 C436.708598,173.984475 436.715363,173.733353 436.715363,173.478849 C436.715363,172.778751 437.283558,172.186881 437.983655,172.186881 C438.683753,172.186881 439.251948,172.732247 439.251948,173.432345 L439.251948,173.478849 C439.251948,173.780702 439.243493,174.082556 439.226582,174.380182 C439.188533,175.054914 438.629639,175.575759 437.961672,175.575759 M409.862224,182.290101 C409.425932,182.290101 408.999785,182.063499 408.764728,181.658491 C408.605769,181.38454 408.45442,181.105515 408.311525,180.821418 C407.996989,180.196572 408.248956,179.433906 408.874647,179.119369 C409.499493,178.802296 410.263005,179.055109 410.577541,179.682491 C410.697607,179.920085 410.825281,180.154296 410.958029,180.385125 C411.309769,180.991369 411.104306,181.767564 410.498062,182.118459 C410.297672,182.234296 410.07868,182.290101 409.862224,182.290101 M435.527395,182.98428 C435.288956,182.98428 435.047135,182.917483 434.833216,182.777125 C434.247265,182.393255 434.083233,181.606914 434.467102,181.020963 C434.614224,180.796052 434.754582,180.567759 434.888176,180.335239 C435.23907,179.727304 436.013574,179.52015 436.620663,179.869353 C437.227753,180.219402 437.435753,180.994751 437.08655,181.601841 C436.92759,181.876637 436.762712,182.147207 436.589379,182.411011 C436.345867,182.783044 435.940013,182.98428 435.527395,182.98428 M415.377607,187.801255 C415.161151,187.801255 414.942159,187.746296 414.742615,187.630459 C414.467818,187.471499 414.197249,187.304085 413.933444,187.12906 C413.348338,186.743499 413.188533,185.957158 413.57494,185.372052 C413.960501,184.787792 414.747688,184.62545 415.331948,185.013548 C415.555167,185.16067 415.781769,185.301028 416.014289,185.435467 C416.619688,185.787207 416.826842,186.563402 416.475948,187.1688 C416.240046,187.575499 415.813899,187.801255 415.377607,187.801255 M429.724533,188.191044 C429.262875,188.191044 428.817281,187.938231 428.593216,187.498556 C428.275298,186.874556 428.523883,186.110198 429.147883,185.79228 C429.387167,185.671369 429.621379,185.542849 429.853054,185.407564 C430.456761,185.055824 431.234647,185.259597 431.588078,185.86415 C431.940663,186.468702 431.736046,187.245743 431.131493,187.599174 C430.858387,187.757288 430.581054,187.908637 430.298647,188.053223 C430.114322,188.146231 429.918159,188.191044 429.724533,188.191044 M422.970452,189.821223 L422.909574,189.821223 C422.589964,189.821223 422.272891,189.811922 421.957509,189.79332 C421.258257,189.751889 420.725574,189.150719 420.76785,188.451467 C420.810127,187.75306 421.369021,187.212767 422.109704,187.261808 C422.373509,187.277028 422.641541,187.284637 422.909574,187.284637 C423.609672,187.284637 424.208306,187.852833 424.208306,188.55293 C424.208306,189.253028 423.67055,189.821223 422.970452,189.821223"
                      id="Fill-56" fill="#8291A9"></path>
                <polygon id="Fill-57" fill="#8291A9"
                         points="240.794328 280.292683 279.490784 280.292683 277.141906 259.154472 243.143207 259.154472"></polygon>
                <polygon id="Fill-58" fill="#8291A9"
                         points="228.715447 286.211382 291.284553 286.211382 291.284553 281.98374 228.715447 281.98374"></polygon>
                <g id="编组-3备份-11" transform="translate(295.089431, 185.910569)">
                    <polygon id="Rectangle-8-Copy-102" fill="#AF6FFA"
                             points="10.1463415 10.9918699 12.6829268 10.9918699 12.6829268 15.2195122 10.1463415 15.2195122"></polygon>
                    <polygon id="Rectangle-8-Copy-103" fill="#00D5BE"
                             points="5.07317073 5.91869919 7.6097561 5.91869919 7.6097561 15.2195122 5.07317073 15.2195122"></polygon>
                    <polygon id="Rectangle-8-Copy-104" fill="#FF6751"
                             points="0 0 2.53658537 0 2.53658537 15.2195122 0 15.2195122"></polygon>
                </g>
                <g id="编组-3备份-12" transform="translate(309.463415, 185.910569)">
                    <polygon id="Rectangle-8-Copy-102" fill="#AF6FFA"
                             points="10.1463415 10.9918699 12.6829268 10.9918699 12.6829268 15.2195122 10.1463415 15.2195122"></polygon>
                    <polygon id="Rectangle-8-Copy-103" fill="#00D5BE"
                             points="5.07317073 5.91869919 7.6097561 5.91869919 7.6097561 15.2195122 5.07317073 15.2195122"></polygon>
                    <polygon id="Rectangle-8-Copy-104" fill="#FF6751"
                             points="0 0 2.53658537 0 2.53658537 15.2195122 0 15.2195122"></polygon>
                </g>
                <path d="M158.395716,279.34149 L158.395716,262.289992 L127.392982,262.289992 L127.392982,279.34149 L130.493255,279.34149 L130.493255,283.991902 L128.943117,283.991902 L128.943117,287.092176 L135.143678,287.092176 L135.143678,283.991902 L133.593539,283.991902 L133.593539,279.34149 L152.195187,279.34149 L152.195187,283.991902 L150.645049,283.991902 L150.645049,287.092176 L156.84561,287.092176 L156.84561,283.991902 L155.295471,283.991902 L155.295471,279.34149 L158.395716,279.34149 Z M147.777263,265.390255 L152.799708,265.390255 L146.599147,276.241228 L141.514684,276.241228 L147.777263,265.390255 Z M137.933903,276.241228 L132.942449,276.241228 L139.220505,265.390255 L144.196446,265.390255 L137.933903,276.241228 Z M135.639699,265.390255 L130.493255,274.36555 L130.493255,265.390255 L135.639699,265.390255 Z M155.295428,267.343428 L155.295428,276.241228 L150.117957,276.241228 L155.295428,267.343428 Z"
                      id="形状" fill="#8291A9" fill-rule="nonzero"></path>
                <g id="路障施工" transform="translate(440.520325, 258.626016)" fill="#8291A9" fill-rule="nonzero">
                    <path d="M25.4034057,25.7218666 L24.0505602,25.7218666 L16.5347634,2.11827028 C16.0838149,0.75652434 14.8812867,0 13.5284412,0 C12.1755957,0 10.9730675,0.75652434 10.522119,2.11827028 L3.00632222,25.7218666 L1.65347669,25.7218666 C0.751579675,25.7218666 0,26.4783909 0,27.3862215 L0,28.7479675 L27.0569106,28.7479675 L27.0569106,27.3862215 C27.0569106,26.4783909 26.3053309,25.7218666 25.4034339,25.7218666 L25.4034057,25.7218666 Z M16.9105691,15.2195122 L8.45528455,15.2195122 L9.55133928,12.6829268 L15.8145144,12.6829268 L16.9105691,15.2195122 L16.9105691,15.2195122 Z M13.1056957,2.53658537 L13.2566826,2.53658537 L15.2195122,8.45528455 L10.9918699,8.45528455 L12.9546995,2.53658537 L13.1056865,2.53658537 L13.1056957,2.53658537 Z M8.23897524,18.601626 L17.972393,18.601626 L19.4471545,22.8292683 L6.76422764,22.8292683 L8.23898907,18.601626 L8.23897524,18.601626 Z"
                          id="形状"></path>
                </g>
            </g>
        </g>
    </g>
</svg>